<?xml version="1.0" encoding="utf-8"?>
<!-- Generator: Adobe Illustrator 27.4.1, SVG Export Plug-In . SVG Version: 6.00 Build 0)  -->
<svg version="1.1" id="Calque_2_00000153677241877070258880000009937570097368695713_"
	 xmlns="http://www.w3.org/2000/svg" xmlns:xlink="http://www.w3.org/1999/xlink" x="0px" y="0px" viewBox="0 0 213.3 107"
	 style="enable-background:new 0 0 213.3 107;" xml:space="preserve">
<style type="text/css">
	.st0{fill:#FFFFFF;}
	.st1{clip-path:url(#SVGID_00000066517196772645674160000006052050881311848126_);}
</style>
<g id="Calque_1-2">
	<g>
		<polygon class="st0" points="123.3,106 123.1,82 180.3,82 180.3,64 147.3,64 147.3,40 179.3,40 179.3,26 142.4,26 145.5,1 
			212.3,1 212.3,106 		"/>
		<path d="M211.8,1.5v104h-88l-0.2-23h56.2h1v-19h-33v-23h32v-15H143l2.9-24H211.8 M212.8,0.5H145l-3.2,26h37v13h-32v25h33v17h-57.3
			l0.3,25h90V0.5L212.8,0.5z"/>
	</g>
	<g>
		<polygon class="st0" points="94.4,106 40.7,1 86.4,1 111.8,64.2 143.1,1 180,1 126.2,106 		"/>
		<path d="M179.2,1.5l-53.3,104H94.8L41.5,1.5h44.6l24.8,61.8l0.8,2.1l1-2l30.8-61.9H179.2 M180.8,0.5h-38l-31,62.5l-25-62.5h-47
			l54.3,106h32.3L180.8,0.5L180.8,0.5L180.8,0.5z"/>
	</g>
	<g>
		<g>
			<g>
				<polygon class="st0" points="63.3,106 63.3,74.2 25.9,1 62.5,1 79.6,39.3 96.8,1 132.8,1 95.3,74.2 95.3,106 				"/>
				<path d="M132,1.5L95,73.9l-0.1,0.2v31.4h-31V74.1l-0.1-0.2l-37-72.4h35.5l16.5,37l0.9,2l0.9-2l16.5-37H132 M133.6,0.5H96.4
					L79.6,38.1L62.8,0.5H25.1l37.8,73.8v32.2h33V74.3L133.6,0.5L133.6,0.5z"/>
			</g>
		</g>
		<g>
			<polygon class="st0" points="1,106 1,1 33,1 33,82 65,82 65,106 			"/>
			<path d="M32.5,1.5v81h32v23h-63V1.5H32.5 M33.5,0.5h-33v106h65v-25h-32V0.5L33.5,0.5z"/>
		</g>
		<g>
			<g>
				<defs>
					<path id="SVGID_1_" d="M23.1-1.5v110h112.5v-110H23.1z M33.5,18l-0.8-0.4L24.2,1l0.3-0.5h9V18z"/>
				</defs>
				<clipPath id="SVGID_00000145027173387621703490000001761877383287754880_">
					<use xlink:href="#SVGID_1_"  style="overflow:visible;"/>
				</clipPath>
				<g style="clip-path:url(#SVGID_00000145027173387621703490000001761877383287754880_);">
					<polygon class="st0" points="63.3,106 63.3,74.2 25.9,1 62.5,1 79.6,39.3 96.8,1 132.8,1 95.3,74.2 95.3,106 					"/>
					<path d="M132,1.5L95,73.9l-0.1,0.2v31.4h-31V74.1l-0.1-0.2l-37-72.4h35.5l16.5,37l0.9,2l0.9-2l16.5-37H132 M133.6,0.5H96.4
						L79.6,38.1L62.8,0.5H25.1l37.8,73.8v32.2h33V74.3L133.6,0.5L133.6,0.5z"/>
				</g>
			</g>
		</g>
	</g>
</g>
</svg>
