<?xml version="1.0" standalone="no"?>
<!DOCTYPE svg PUBLIC "-//W3C//DTD SVG 20010904//EN"
 "http://www.w3.org/TR/2001/REC-SVG-20010904/DTD/svg10.dtd">
<svg version="1.0" xmlns="http://www.w3.org/2000/svg"
 width="1696.000000pt" height="1696.000000pt" viewBox="0 0 1696.000000 1696.000000"
 preserveAspectRatio="xMidYMid meet">
<metadata>
Created by potrace 1.14, written by Peter Selinger 2001-2017
</metadata>
<g transform="translate(0.000000,1696.000000) scale(0.100000,-0.100000)"
fill="#000000" stroke="none">
<path d="M0 8475 l0 -4235 8480 0 8480 0 0 4235 0 4235 -2795 0 -2795 0 -32
-62 c-18 -35 -32 -65 -33 -68 0 -3 -12 -25 -25 -50 -13 -25 -38 -76 -56 -113
-17 -38 -37 -74 -43 -80 -6 -6 -11 -19 -11 -29 0 -10 -4 -18 -10 -18 -5 0 -10
-5 -10 -10 0 -11 -270 -555 -1091 -2205 -211 -423 -384 -772 -384 -775 0 -3
-9 -21 -20 -40 -11 -19 -18 -38 -17 -42 1 -5 -2 -8 -8 -8 -5 0 -10 -4 -10 -10
0 -12 -115 -247 -129 -264 -5 -6 -10 -15 -12 -21 -3 -11 -55 -121 -69 -145 -5
-8 -46 -91 -92 -185 -46 -93 -87 -173 -91 -176 -5 -3 -8 -9 -7 -13 0 -3 -8
-27 -19 -51 -11 -25 -20 -48 -20 -52 1 -3 -3 -9 -8 -12 -10 -7 -211 -411 -211
-425 0 -5 -4 -12 -9 -15 -4 -3 -18 -27 -31 -53 -13 -26 -27 -50 -31 -52 -4 -3
-36 68 -71 157 -35 89 -71 180 -81 202 -9 22 -29 72 -44 110 -15 39 -33 84
-40 100 -7 17 -30 73 -50 125 -20 52 -43 109 -51 127 -16 35 -18 74 -5 88 5 6
54 100 110 209 56 110 106 205 112 213 6 7 9 13 5 13 -3 0 8 23 24 50 16 28
27 50 24 50 -3 0 3 12 14 28 10 15 25 43 32 62 8 19 17 37 20 40 3 3 47 86 97
185 50 99 125 248 168 330 43 83 134 260 202 395 69 135 138 268 153 295 16
28 29 58 29 67 1 9 5 18 9 20 4 2 23 35 42 73 19 39 38 73 43 76 5 3 9 10 9
15 1 10 50 112 91 187 14 26 22 47 19 47 -4 0 -2 4 3 8 13 9 55 93 55 109 0 6
4 13 8 15 8 3 103 186 205 393 17 33 34 62 38 63 5 2 9 9 9 16 0 6 14 38 32
71 17 33 37 74 45 90 8 17 18 37 23 45 4 8 51 98 102 200 52 102 154 301 227
443 l132 257 -1483 0 -1483 0 -24 -52 c-13 -29 -37 -80 -52 -113 -39 -84 -52
-119 -51 -127 1 -5 -2 -8 -7 -8 -5 0 -12 -11 -15 -24 -3 -13 -22 -58 -41 -99
-19 -41 -35 -80 -35 -86 0 -6 -5 -11 -10 -11 -6 0 -9 -3 -8 -7 1 -5 -4 -19 -9
-33 -41 -95 -84 -190 -128 -283 l-32 -68 -17 48 c-10 26 -28 73 -41 103 -12
30 -64 161 -115 290 -51 129 -98 247 -106 261 -7 14 -11 29 -7 33 3 3 1 6 -5
6 -7 0 -12 6 -12 14 0 7 -8 33 -19 57 -29 70 -34 84 -33 92 1 4 -1550 7 -3448
7 l-3450 0 0 -4235z m2665 2868 c10 -21 18 -41 17 -45 -1 -5 3 -8 10 -8 6 0 8
-3 5 -7 -4 -3 -3 -11 2 -17 17 -21 71 -129 71 -142 0 -7 4 -14 8 -16 4 -1 38
-64 76 -138 93 -183 441 -865 636 -1245 54 -104 155 -302 225 -440 328 -643
389 -763 411 -802 13 -24 20 -43 16 -43 -4 0 -2 -4 4 -8 5 -4 26 -38 45 -77
114 -227 214 -421 222 -426 5 -3 8 -8 6 -10 -4 -6 75 -163 84 -167 4 -2 5 -8
1 -13 -3 -5 -1 -9 4 -9 6 0 13 -12 17 -27 3 -15 10 -30 13 -33 4 -3 58 -106
121 -230 63 -124 161 -316 217 -427 l104 -202 -1 -286 c-1 -257 -3 -285 -17
-286 -10 -1 -24 -2 -32 -3 -8 -1 -21 3 -27 8 -8 5 -13 5 -13 0 0 -11 -201 -11
-218 0 -7 4 -12 3 -12 -1 0 -10 -92 -9 -108 1 -7 4 -12 4 -12 -1 0 -4 -29 -8
-65 -8 -36 0 -65 4 -65 8 0 5 -6 5 -12 1 -17 -11 -99 -12 -120 -2 -10 5 -18 5
-18 1 0 -10 -167 -10 -176 0 -4 4 -12 3 -18 0 -15 -10 -166 -10 -166 0 0 5 -5
5 -12 1 -16 -10 -150 -12 -170 -2 -10 5 -18 5 -18 0 0 -10 -92 -8 -108 2 -7 4
-12 3 -12 -1 0 -7 -97 -9 -125 -3 -5 1 -12 1 -15 0 -15 -6 -190 -4 -190 3 0 5
-5 5 -12 1 -16 -10 -108 -11 -108 -1 0 4 -5 5 -12 1 -16 -10 -128 -11 -128 -1
0 5 -6 5 -12 0 -17 -10 -199 -11 -220 -1 -10 5 -18 5 -18 1 0 -7 -73 -9 -100
-4 -7 1 -6 5141 1 5141 3 0 14 -17 24 -37z m11540 -712 l40 -1 0 -412 c0 -272
-3 -416 -10 -420 -7 -5 -7 -8 0 -8 7 0 10 -37 10 -97 l0 -98 -718 -1 c-394 0
-717 1 -717 3 0 3 204 403 235 461 13 23 20 42 17 42 -4 0 -2 4 3 8 9 6 169
314 239 459 24 49 35 63 56 65 20 2 676 1 845 -1z m115 -3042 c3 -4 5 -310 5
-680 l0 -673 -38 -1 c-20 0 -37 3 -37 8 0 4 -5 5 -12 1 -17 -11 -108 -11 -108
-1 0 5 -6 5 -12 0 -18 -11 -90 -11 -105 0 -8 6 -13 6 -13 0 0 -4 -26 -7 -57
-6 -70 4 -57 4 -171 0 -52 -1 -96 1 -99 6 -2 4 -10 4 -16 -1 -14 -10 -107 -10
-124 1 -7 5 -13 5 -13 0 0 -10 -206 -10 -216 0 -4 4 -13 2 -21 -4 -10 -9 -13
-8 -13 1 0 8 -4 9 -12 3 -11 -8 -59 -8 -233 -3 -5 0 -41 -2 -80 -3 -38 -2 -76
1 -82 6 -8 5 -13 6 -13 0 0 -12 -153 -10 -162 2 -5 7 -8 6 -8 -1 0 -11 -64
-13 -76 -2 -4 4 -14 4 -23 0 -21 -11 -562 -9 -578 1 -7 5 -13 5 -13 0 0 -10
-556 -11 -566 -1 -4 4 -12 4 -18 0 -6 -3 -80 -7 -163 -7 -174 -1 -166 -8 -113
90 59 110 151 295 150 301 -1 4 2 10 7 13 5 3 42 74 83 156 41 83 77 152 80
155 3 3 43 79 89 170 45 91 98 193 116 228 19 34 31 62 27 62 -4 0 -2 4 4 8 6
4 25 39 44 77 18 39 39 77 46 85 11 14 159 15 1276 16 695 0 1265 -3 1268 -7z"/>
</g>
</svg>
